<?xml version="1.0" encoding="UTF-8" standalone="no"?>
<svg width="149px" height="35px" viewBox="0 0 149 35" version="1.1" xmlns="http://www.w3.org/2000/svg" xmlns:xlink="http://www.w3.org/1999/xlink" xmlns:sketch="http://www.bohemiancoding.com/sketch/ns">
    <!-- Generator: Sketch 3.3.3 (12072) - http://www.bohemiancoding.com/sketch -->
    <title>header.sumscope_logo</title>
    <desc>Created with Sketch.</desc>
    <defs></defs>
    <g id="Pages" stroke="none" stroke-width="1" fill="none" fill-rule="evenodd" sketch:type="MSPage">
        <g id="Homepage---Desktop-HD-Browser" sketch:type="MSLayerGroup" transform="translate(-647.000000, -38.000000)" fill="#D0011B">
            <g transform="translate(0.000000, 20.000000)" id="Thin-Header" sketch:type="MSShapeGroup">
                <g>
                    <g id="header.sumscope_logo" transform="translate(647.449618, 18.000000)">
                        <g id="Sumscope-Symbol-current">
                            <path d="M28.5067726,15.13925 L28.515064,14.45465 L14.2471677,0 L0,14.43365 L0.0490578775,20.2251 L0.0421483173,20.51595 L14.305208,34.9657 L28.5523757,20.53205 L28.5067726,15.13925 L28.5067726,15.13925 Z M1.69076938,15.13435 L14.2471677,2.41395 L26.4701797,14.79695 L14.2706602,27.15615 L14.2485496,27.13375 L7.45437903,20.1803 L8.89813164,18.718 L14.2485496,24.1297 L23.4921592,14.79695 L23.4755763,14.7798 L14.3660121,5.55135 L14.2475132,5.43095 L14.2471677,5.43095 L1.71598928,18.12615 L1.69076938,15.13435 L1.69076938,15.13435 Z M14.305208,32.55175 L2.08254145,20.1691 L14.282061,7.80955 L14.3041715,7.83195 L21.0983421,14.7854 L19.6545895,16.2477 L14.3041715,10.836 L5.0605619,20.1691 L5.07714484,20.1859 L14.186709,29.4147 L14.305208,29.53475 L26.8363864,16.83955 L26.8616063,19.831 L14.305208,32.55175 L14.305208,32.55175 Z" id="Sumscope-Symbol"></path>
                        </g>
                        <path d="M38.0741038,23.1183777 C38.613062,23.314696 39.1791619,23.485183 39.7659413,23.6337133 C40.356598,23.7809521 41.0739165,23.8532799 41.9243588,23.8532799 C43.2646456,23.8532799 44.2675989,23.5781759 44.9293413,23.0331342 C45.5910837,22.4842177 45.9232474,21.7454408 45.9232474,20.8155118 C45.9232474,20.3557136 45.8534542,19.9643685 45.7151604,19.6363102 C45.5742816,19.3108351 45.3649022,19.0279817 45.0883146,18.7916247 C44.8104345,18.5552677 44.4627612,18.3395759 44.0465873,18.141966 C43.6291209,17.9456476 43.1418614,17.7338305 42.5861012,17.5065145 L41.1889459,16.9420993 C40.714611,16.7444893 40.2803426,16.5287975 39.8887255,16.2937321 C39.4971084,16.0560836 39.15719,15.7654808 38.8715551,15.4219237 C38.5859202,15.0783666 38.3597387,14.6818552 38.1981805,14.2323895 C38.0327449,13.7829238 37.9513196,13.2482146 37.9513196,12.628262 C37.9513196,11.1403756 38.4579661,9.97667278 39.4712591,9.13457041 C40.4871371,8.29375962 41.9088492,7.874 43.7389805,7.874 C44.5247996,7.874 45.2692598,7.93728683 45.972361,8.06773521 C46.6741699,8.20076672 47.2958458,8.36221272 47.8360964,8.55853106 C47.7533786,9.2443537 47.5750184,9.92371849 47.2958458,10.5940423 C46.8538226,10.4300132 46.3432987,10.2827744 45.7629816,10.152326 C45.1826646,10.0218777 44.5247996,9.95600769 43.7893867,9.95600769 C42.7592916,9.95600769 41.9657177,10.1652417 41.4099575,10.5811266 C40.8541973,10.9983031 40.5763172,11.623422 40.5763172,12.4564834 C40.5763172,12.798749 40.6448179,13.1048506 40.7844042,13.3747883 C40.922698,13.6460176 41.1075206,13.881083 41.3375794,14.0864423 C41.5637609,14.2905101 41.8351787,14.4752043 42.1453704,14.6379419 C42.4568546,14.801971 42.7838484,14.9492098 43.1263518,15.0783666 L44.5015352,15.618242 C45.1529379,15.8778472 45.7345474,16.1516596 46.2411939,16.4396793 C46.7478404,16.7251158 47.1808164,17.0596319 47.5414143,17.4445192 C47.9007197,17.8281149 48.1747224,18.2814553 48.3634224,18.8032488 C48.5508299,19.3276254 48.6451799,19.9398287 48.6451799,20.6437333 C48.6451799,22.3240633 48.0648628,23.6530868 46.9042287,24.624346 C45.7423022,25.5981883 44.115088,26.0838179 42.0238787,26.0838179 C41.5159397,26.0838179 41.0584069,26.0670275 40.6499877,26.0347383 C40.2402761,26.0024491 39.8602913,25.952078 39.5087406,25.886208 C39.15719,25.8216296 38.818564,25.7389692 38.4915702,25.6421016 C38.1632839,25.5439424 37.8298278,25.4367423 37.486032,25.3243759 C37.5183436,24.9627368 37.5920141,24.5972231 37.7070436,24.2200852 C37.8207806,23.8455305 37.9435648,23.476142 38.0741038,23.1183777 Z M51.5390104,13.217217 C51.7186631,13.1836362 51.9228726,13.1590964 52.151639,13.1423061 C52.3804055,13.1255157 52.5768602,13.1190578 52.7410034,13.1190578 C52.9206561,13.1190578 53.1261581,13.1255157 53.353632,13.1423061 C53.5823985,13.1590964 53.7879005,13.1836362 53.9662607,13.217217 L53.9662607,20.1025663 C53.9662607,20.8878396 54.0412237,21.5362068 54.1885648,22.052834 C54.3359059,22.5668781 54.5569175,22.9711389 54.8503072,23.2643248 C55.1436969,23.5588024 55.5030023,23.7628701 55.929516,23.8778197 C56.3547371,23.9927692 56.8458741,24.0483067 57.4003418,24.0483067 C58.2352746,24.0483067 58.9474231,23.9591885 59.5342025,23.7809521 L59.5342025,13.217217 C59.7138552,13.1836362 59.9154799,13.1590964 60.1364915,13.1423061 C60.3562106,13.1255157 60.5565428,13.1190578 60.7361955,13.1190578 C60.9158482,13.1190578 61.1174729,13.1255157 61.337192,13.1423061 C61.5582036,13.1590964 61.7572433,13.1836362 61.9381885,13.217217 L61.9381885,25.3954121 C61.3656263,25.5594413 60.6832044,25.7144294 59.890923,25.8616682 C59.0960567,26.0089069 58.275341,26.0838179 57.4248987,26.0838179 C56.62357,26.0838179 55.8674776,26.0127816 55.1566215,25.8745839 C54.4457655,25.7363861 53.8189197,25.4535327 53.2799615,25.0286068 C52.7410034,24.6049725 52.3157822,24.008268 52.004298,23.2397851 C51.6953987,22.4713021 51.5390104,21.4600043 51.5390104,20.2007254 L51.5390104,13.217217 Z M65.7651791,13.217217 C65.9435394,13.1836362 66.1193147,13.1590964 66.2899202,13.1423061 C66.4631105,13.1255157 66.6388859,13.1190578 66.8185386,13.1190578 C66.9994838,13.1190578 67.1662118,13.1255157 67.3213077,13.1423061 C67.477696,13.1590964 67.6444241,13.1836362 67.8253693,13.217217 C67.874483,13.4613234 67.9235967,13.7829238 67.9727104,14.1846015 C68.0205316,14.5849876 68.0450884,14.92467 68.0450884,15.2010655 C68.191137,14.9078796 68.3772521,14.6263177 68.5956788,14.35638 C68.8192753,14.0864423 69.0803534,13.8449191 69.3827903,13.6318104 C69.6839348,13.4199932 70.0329005,13.2482146 70.4232251,13.1190578 C70.8161347,12.9873179 71.2504031,12.9214479 71.7234455,12.9214479 C72.7070118,12.9214479 73.4618117,13.121641 73.9930151,13.5233186 C74.5242184,13.9237047 74.9300526,14.4816621 75.2079327,15.2010655 C75.3707834,14.92467 75.5711156,14.6456913 75.8076368,14.3667126 C76.044158,14.090317 76.3104059,13.8449191 76.6050881,13.6318104 C76.8984777,13.4199932 77.2358113,13.2482146 77.6106263,13.1190578 C77.9867338,12.9873179 78.4132474,12.9214479 78.8849974,12.9214479 C80.3403136,12.9214479 81.4001354,13.330875 82.0618778,14.147146 C82.7249126,14.9647086 83.0570763,16.1736163 83.0570763,17.7738691 L83.0570763,25.7893404 C82.8761311,25.8216296 82.6706291,25.8461694 82.4431551,25.8616682 C82.2130963,25.8797501 82.0075942,25.886208 81.8305264,25.886208 C81.6495813,25.886208 81.4492491,25.8797501 81.2282375,25.8616682 C81.0072259,25.8461694 80.8068937,25.8216296 80.6285334,25.7893404 L80.6285334,18.4842315 C80.6285334,17.3592757 80.4566355,16.5120071 80.1115472,15.9488834 C79.7690438,15.3831766 79.2055288,15.1029064 78.4184173,15.1029064 C77.584777,15.1029064 76.9126949,15.4064248 76.3957086,16.0095871 C75.8813073,16.6153325 75.6241067,17.5065145 75.6241067,18.6818414 L75.6241067,25.7893404 C75.4431615,25.8216296 75.2428293,25.8461694 75.0218177,25.8616682 C74.803391,25.8797501 74.6017664,25.886208 74.4221137,25.886208 C74.2411685,25.886208 74.0421288,25.8797501 73.8198247,25.8616682 C73.6001055,25.8461694 73.3997734,25.8216296 73.2201207,25.7893404 L73.2201207,18.3137445 C73.2201207,17.2184948 73.0559775,16.3983491 72.7302762,15.8507243 C72.4032824,15.3030994 71.8785414,15.0305785 71.1599305,15.0305785 C70.7502189,15.0305785 70.3663566,15.1196967 70.0070512,15.2992247 C69.6477458,15.4800442 69.3336766,15.7473988 69.0622589,16.1090379 C68.793426,16.4680938 68.5814617,16.9201426 68.4250733,17.469059 C68.2699774,18.0166839 68.191137,18.6482606 68.191137,19.367664 L68.191137,25.7893404 C68.0127768,25.8216296 67.8124446,25.8461694 67.591433,25.8616682 C67.3704214,25.8797501 67.1713817,25.886208 66.9904365,25.886208 C66.8094913,25.886208 66.6052818,25.8797501 66.3765154,25.8616682 C66.1490414,25.8461694 65.9435394,25.8216296 65.7651791,25.7893404 L65.7651791,13.217217 Z M86.4898649,23.5097228 C86.9305957,23.6892507 87.4165627,23.8313232 87.9477661,23.9385234 C88.4789694,24.0444319 89.0062954,24.0973862 89.5310364,24.0973862 C89.9071439,24.0973862 90.2664494,24.0573476 90.6102452,23.9759788 C90.9527486,23.8933185 91.2513081,23.7706195 91.5033389,23.6091735 C91.7579547,23.4451444 91.9621642,23.2449513 92.1172601,23.0060112 C92.2749409,22.7696543 92.3499039,22.5061744 92.3499039,22.2116969 C92.3499039,21.8849302 92.2904505,21.6137009 92.1676662,21.4018837 C92.044882,21.1900666 91.8807389,21.0105386 91.6765293,20.8632998 C91.4697348,20.7160611 91.2345061,20.5894874 90.9669657,20.4835788 C90.6942555,20.3763787 90.4034507,20.2743448 90.093259,20.1774772 L89.2363543,19.8571683 C88.1894572,19.4645317 87.4294874,19.0253985 86.95386,18.5346027 C86.4795252,18.0450984 86.2442964,17.3838155 86.2442964,16.5494626 C86.2442964,15.4387141 86.6397909,14.5552815 87.4320723,13.9030396 C88.2256462,13.2482146 89.3914502,12.9214479 90.9281917,12.9214479 C91.5653773,12.9214479 92.1922231,12.9847348 92.8048518,13.1048506 C93.4174805,13.2275496 93.9525612,13.3709136 94.4113865,13.5336512 C94.3777824,13.8617095 94.3170365,14.1884762 94.2265639,14.5139513 C94.1373838,14.8420096 94.0262318,15.142945 93.8969852,15.4219237 C93.5350948,15.2914753 93.1059963,15.1649016 92.6071045,15.0422027 C92.1107978,14.9182121 91.5744245,14.8562169 91.0018623,14.8562169 C90.3969884,14.8562169 89.8619076,14.9647086 89.3953276,15.1765257 C88.9287475,15.3883429 88.6961037,15.7654808 88.6961037,16.3040646 C88.6961037,16.5804602 88.7516797,16.8181087 88.8667091,17.0157186 C88.9817386,17.2107454 89.1381269,17.3786493 89.3332892,17.516847 C89.5310364,17.657628 89.754633,17.7738691 90.0092487,17.8733198 C90.2612795,17.9701874 90.5352822,18.0683466 90.8286719,18.1677973 L91.9091731,18.5346027 C92.3007902,18.665051 92.6730203,18.8200392 93.0245709,19.0008587 C93.377414,19.1790951 93.679851,19.4051195 93.9331742,19.6737657 C94.185205,19.9437034 94.3907071,20.2704701 94.543218,20.6540658 C94.7008988,21.0389531 94.7784467,21.5000429 94.7784467,22.0386268 C94.7784467,22.6430806 94.656955,23.1945802 94.4113865,23.694417 C94.1671105,24.1929623 93.8168523,24.6165966 93.3670743,24.9679031 C92.9198812,25.3192096 92.3770457,25.5943136 91.7372752,25.7893404 C91.0975047,25.9856587 90.3969884,26.0838179 89.6279714,26.0838179 C88.8421523,26.0838179 88.155853,26.029572 87.5690737,25.9236635 C86.9797094,25.8177549 86.4304115,25.676974 85.9263499,25.4948629 C85.9573691,25.1680961 86.0271622,24.8374547 86.1331444,24.501647 C86.240419,24.1684225 86.3580334,23.8351979 86.4898649,23.5097228 Z M106.256834,23.6091735 C106.388665,23.8351979 106.502402,24.1232176 106.60063,24.4654831 C106.698857,24.8090402 106.755725,25.1603467 106.771235,25.5194027 C105.805763,25.8965405 104.70329,26.0838179 103.459938,26.0838179 C101.367436,26.0838179 99.7893358,25.4922797 98.7282216,24.3066203 C97.6645224,23.1222524 97.1307341,21.5245827 97.1307341,19.5161944 C97.1307341,18.5823907 97.2625656,17.7183317 97.5249361,16.9162679 C97.7873066,16.1167873 98.1750463,15.4219237 98.6907401,14.8329686 C99.2051414,14.2465967 99.8462043,13.7790491 100.615221,13.4367836 C101.382946,13.0932265 102.274747,12.9214479 103.289333,12.9214479 C103.976924,12.9214479 104.581798,12.9627781 105.103954,13.0428553 C105.627403,13.1255157 106.125002,13.2559641 106.60063,13.4367836 C106.60063,13.7144707 106.56444,14.0360712 106.49077,14.404168 C106.417099,14.7709734 106.314995,15.0964485 106.183163,15.3728441 C105.380542,15.0964485 104.465476,14.9556676 103.435381,14.9556676 C102.17652,14.9556676 101.235605,15.3728441 100.615221,16.207197 C99.9935454,17.0402584 99.6846461,18.141966 99.6846461,19.5161944 C99.6846461,21.0828664 100.034904,22.2310704 100.736713,22.9582232 C101.441107,23.685376 102.406579,24.0483067 103.633129,24.0483067 C104.124265,24.0483067 104.576628,24.017309 104.992802,23.951439 C105.410269,23.8868606 105.831612,23.7706195 106.256834,23.6091735 Z M114.325696,26.0838179 C113.343423,26.0838179 112.485225,25.9172056 111.751105,25.5813979 C111.0144,25.2442987 110.401771,24.7845004 109.909341,24.1955454 C109.420789,23.6091735 109.056314,22.9143099 108.8185,22.1122461 C108.580687,21.311474 108.464365,20.4448318 108.464365,19.5161944 C108.464365,18.5823907 108.580687,17.7183317 108.8185,16.9162679 C109.056314,16.1167873 109.420789,15.4219237 109.909341,14.8329686 C110.401771,14.2465967 111.0144,13.7790491 111.751105,13.4367836 C112.485225,13.0932265 113.343423,12.9214479 114.325696,12.9214479 C115.306678,12.9214479 116.166167,13.0932265 116.90158,13.4367836 C117.636993,13.7790491 118.249622,14.2465967 118.740759,14.8329686 C119.229311,15.4219237 119.593786,16.1167873 119.8316,16.9162679 C120.069413,17.7183317 120.187028,18.5823907 120.187028,19.5161944 C120.187028,20.4448318 120.069413,21.311474 119.8316,22.1122461 C119.593786,22.9143099 119.229311,23.6091735 118.740759,24.1955454 C118.249622,24.7845004 117.636993,25.2442987 116.90158,25.5813979 C116.166167,25.9172056 115.306678,26.0838179 114.325696,26.0838179 Z M114.325696,24.1477574 C115.454019,24.1477574 116.287659,23.7396219 116.829202,22.9207677 C117.36816,22.1044967 117.636993,20.9692084 117.636993,19.5161944 C117.636993,18.0618888 117.36816,16.9291836 116.829202,16.120662 C116.287659,15.3121404 115.454019,14.9078796 114.325696,14.9078796 C113.197374,14.9078796 112.367611,15.3121404 111.836408,16.120662 C111.303912,16.9291836 111.040249,18.0618888 111.040249,19.5161944 C111.040249,20.9692084 111.303912,22.1044967 111.836408,22.9207677 C112.367611,23.7396219 113.197374,24.1477574 114.325696,24.1477574 Z M123.352276,13.217217 C123.515127,13.1836362 123.681855,13.1590964 123.855045,13.1423061 C124.025651,13.1255157 124.202718,13.1190578 124.381079,13.1190578 C124.545222,13.1190578 124.715827,13.1255157 124.89548,13.1423061 C125.077718,13.1590964 125.247031,13.1836362 125.411174,13.217217 C125.427976,13.2482146 125.448655,13.3502485 125.47192,13.5233186 C125.497769,13.6938056 125.522326,13.8784998 125.548175,14.0748182 C125.570147,14.269845 125.595996,14.4584139 125.619261,14.6379419 C125.64511,14.8174698 125.658035,14.9311278 125.658035,14.9789158 C125.820885,14.7193106 126.01734,14.4648717 126.244814,14.222057 C126.472288,13.9753675 126.747583,13.7558009 127.068115,13.5594825 C127.387354,13.3618726 127.746659,13.2068845 128.146031,13.0932265 C128.545403,12.9795685 128.992596,12.9214479 129.483733,12.9214479 C130.219146,12.9214479 130.900275,13.0428553 131.532291,13.2895448 C132.160429,13.5336512 132.70068,13.9133722 133.15175,14.4287078 C133.598943,14.9427519 133.950494,15.5962854 134.20511,16.3893081 C134.45714,17.1836225 134.583802,18.1174262 134.583802,19.1971771 C134.583802,21.3528041 133.999608,23.0408836 132.832511,24.2588322 C131.661537,25.4741978 130.005889,26.0838179 127.864273,26.0838179 C127.503676,26.0838179 127.136615,26.0579865 126.760508,26.0089069 C126.3844,25.9611189 126.058699,25.8965405 125.779526,25.8138802 L125.779526,31.5742737 C125.583072,31.6052713 125.374985,31.6298111 125.153973,31.6453099 C124.934254,31.6633919 124.733922,31.6698497 124.551684,31.6698497 C124.374616,31.6698497 124.172992,31.6633919 123.950688,31.6453099 C123.732261,31.6298111 123.530636,31.6052713 123.352276,31.5742737 L123.352276,13.217217 Z M125.779526,23.7292893 C126.089718,23.8455305 126.408957,23.9243161 126.735951,23.9759788 C127.062945,24.0237669 127.488166,24.0483067 128.011615,24.0483067 C128.600979,24.0483067 129.139937,23.9553138 129.628489,23.7667448 C130.120918,23.5781759 130.542262,23.2901562 130.891228,22.8975195 C131.244071,22.5061744 131.523244,22.0115038 131.727453,21.4147994 C131.931663,20.8168034 132.032475,20.1116072 132.032475,19.2940447 C132.032475,17.9869778 131.793369,16.9511402 131.311279,16.1800741 C130.826605,15.4141743 130.038201,15.0305785 128.944775,15.0305785 C128.535063,15.0305785 128.142154,15.1029064 127.767339,15.2501451 C127.389939,15.3973839 127.05519,15.618242 126.760508,15.911428 C126.467118,16.207197 126.230597,16.5778771 126.049652,17.0260512 C125.869999,17.4768084 125.779526,18.010226 125.779526,18.6314703 L125.779526,23.7292893 Z M139.661899,20.1025663 C139.692919,21.4767947 140.049639,22.4816346 140.728183,23.1183777 C141.405435,23.7538291 142.409681,24.0715549 143.731874,24.0715549 C144.8938,24.0715549 145.998858,23.8700703 147.044463,23.4606432 C147.175002,23.7060411 147.279692,24.0043933 147.362409,24.3569914 C147.443835,24.7070064 147.492948,25.0531466 147.50975,25.3954121 C146.970792,25.6253112 146.377551,25.7970898 145.731318,25.9107478 C145.086377,26.0256973 144.370352,26.0838179 143.58841,26.0838179 C142.441993,26.0838179 141.459719,25.9236635 140.642881,25.6046461 C139.82475,25.2856288 139.150083,24.8374547 138.620172,24.2588322 C138.087676,23.6776266 137.699937,22.991804 137.455661,22.1974896 C137.2088,21.4057584 137.086015,20.5365331 137.086015,19.5872306 C137.086015,18.6573016 137.204922,17.7867848 137.442736,16.9782632 C137.679257,16.1697416 138.04244,15.4671285 138.533577,14.8704241 C139.023421,14.2737197 139.64122,13.8010058 140.384388,13.4484077 C141.128848,13.0971012 142.007724,12.9214479 143.021017,12.9214479 C143.888262,12.9214479 144.646939,13.0686867 145.302219,13.3618726 C145.957499,13.6563501 146.504212,14.0619025 146.944943,14.574655 C147.389551,15.0899907 147.723007,15.7034855 147.951774,16.4138479 C148.18054,17.1255019 148.292985,17.8978596 148.292985,18.730921 C148.292985,18.9595285 148.287815,19.2010518 148.271013,19.4529075 C148.252918,19.7073464 148.237409,19.9230383 148.221899,20.1025663 L139.661899,20.1025663 Z M145.891584,18.2892047 C145.891584,17.8306981 145.829545,17.3941481 145.706761,16.9782632 C145.583977,16.5610867 145.404324,16.1968645 145.167803,15.8881797 C144.929989,15.5769118 144.627552,15.3289308 144.260492,15.1403618 C143.892139,14.9517929 143.455286,14.8562169 142.948639,14.8562169 C141.950856,14.8562169 141.185716,15.1610269 140.655805,15.7654808 C140.124602,16.368643 139.800193,17.2107454 139.686456,18.2892047 L145.891584,18.2892047 L145.891584,18.2892047 Z" id="Sumscope-Logotype"></path>
                    </g>
                </g>
            </g>
        </g>
    </g>
</svg>